<?xml version="1.0" standalone="no"?>
<!DOCTYPE svg PUBLIC "-//W3C//DTD SVG 20010904//EN"
 "http://www.w3.org/TR/2001/REC-SVG-20010904/DTD/svg10.dtd">
<svg version="1.0" xmlns="http://www.w3.org/2000/svg"
 width="2048.000000pt" height="1907.000000pt" viewBox="0 0 2048.000000 1907.000000"
 preserveAspectRatio="xMidYMid meet">
<metadata>
Created by potrace 1.16, written by Peter Selinger 2001-2019
</metadata>
<g transform="translate(0.000000,1907.000000) scale(0.100000,-0.100000)"
fill="#000000" stroke="none">
<path d="M10243 19063 l10227 -3 0 -9525 0 -9525 -10232 -3 -10233 -2 10238
-3 10237 -2 -2 9533 -3 9532 -10230 0 -10230 0 10228 -2z"/>
<path d="M9975 17204 c-712 -31 -1344 -137 -1990 -334 -1283 -390 -2484 -1149
-3393 -2145 -708 -775 -1232 -1641 -1578 -2610 -625 -1747 -590 -3695 97
-5418 91 -227 161 -382 285 -627 410 -813 983 -1570 1643 -2174 1105 -1010
2392 -1650 3856 -1915 674 -122 1466 -150 2160 -75 1470 158 2841 725 3990
1647 385 310 795 715 1116 1102 862 1042 1445 2330 1654 3654 73 463 89 679
90 1211 0 450 -5 556 -41 880 -208 1872 -1112 3612 -2534 4875 -1256 1116
-2830 1783 -4510 1910 -192 15 -689 26 -845 19z m-3084 -4029 c348 -52 500
-239 501 -615 0 -74 -5 -178 -11 -230 -7 -52 -13 -104 -14 -115 -2 -24 26 -27
382 -45 278 -13 511 -33 636 -55 258 -44 422 -131 479 -255 l23 -49 46 63 c90
122 199 210 350 281 194 92 371 120 758 120 l286 0 48 183 c52 198 74 249 142
330 53 62 121 104 215 133 98 30 265 23 663 -30 176 -23 439 -57 585 -76 176
-23 288 -42 335 -58 278 -95 415 -272 415 -536 0 -140 -9 -164 -297 -833 -159
-371 -278 -661 -281 -685 -8 -76 35 -65 173 42 44 35 97 65 145 82 67 25 87
28 195 27 133 -1 208 -20 343 -88 211 -106 486 -346 675 -588 33 -43 63 -75
67 -73 8 5 24 31 137 233 97 173 158 259 247 347 167 166 336 211 636 171 185
-25 380 -75 567 -146 l102 -38 53 28 c279 151 748 73 1038 -171 176 -148 289
-384 306 -640 19 -282 -92 -656 -302 -1016 -47 -81 -70 -129 -63 -133 16 -11
83 5 215 49 203 67 326 72 443 15 68 -33 182 -146 229 -226 45 -75 137 -284
158 -356 25 -84 23 -202 -4 -284 -40 -117 -105 -201 -272 -354 -577 -528
-1199 -809 -2015 -908 -382 -47 -656 -16 -965 106 -83 33 -235 121 -292 169
l-36 31 -79 -42 c-43 -23 -132 -81 -198 -130 -303 -225 -493 -283 -766 -235
-224 39 -416 131 -769 370 -74 51 -155 104 -181 118 l-45 27 -18 -78 c-41
-179 -155 -333 -296 -400 -110 -52 -213 -76 -302 -69 -158 13 -272 66 -572
268 -170 113 -355 219 -385 219 -6 0 -11 -4 -11 -9 0 -4 -28 -44 -61 -87 -207
-266 -413 -385 -645 -371 -223 13 -431 126 -809 441 -182 151 -253 208 -272
219 -6 4 -80 -4 -165 -19 -185 -31 -419 -42 -509 -25 -97 19 -166 58 -241 133
-130 131 -228 378 -357 892 l-68 270 -23 -85 c-57 -213 -157 -451 -244 -582
-87 -130 -191 -219 -303 -258 -69 -23 -193 -25 -278 -4 -94 24 -251 107 -368
194 -103 76 -107 78 -107 53 0 -15 18 -259 40 -542 22 -283 38 -535 34 -560
-34 -260 -184 -273 -789 -64 -574 197 -786 305 -973 494 -161 162 -245 331
-321 642 -132 536 -250 1344 -311 2128 -48 627 -69 1379 -52 1923 7 210 17
405 22 432 27 138 142 281 280 347 145 70 152 71 762 75 l548 4 6 27 c35 172
70 248 151 333 64 67 165 124 256 144 94 20 1243 21 1378 0z"/>
<path d="M5468 12994 c-8 -12 -80 -253 -122 -404 -209 -757 -370 -1747 -515
-3164 -11 -103 -22 -190 -24 -192 -15 -15 -63 406 -77 666 -23 449 -9 847 70
2020 11 157 22 354 26 439 l7 154 -123 -6 c-68 -4 -189 -7 -271 -7 l-147 0
-11 -31 c-6 -17 -8 -48 -5 -69 5 -28 0 -49 -19 -86 -16 -32 -27 -44 -30 -34
-19 55 -57 188 -57 197 0 8 -21 10 -67 7 -38 -3 -106 -9 -153 -12 l-85 -7 -7
-110 c-31 -528 -34 -1263 -8 -1755 46 -865 171 -1753 356 -2537 l46 -198 97
-71 c207 -154 429 -280 648 -368 123 -49 252 -90 260 -82 3 2 -1 256 -8 563
-13 590 -8 1519 11 1883 52 1054 169 1775 367 2280 49 123 131 295 139 288 2
-3 0 -28 -6 -56 -5 -28 -21 -138 -34 -244 -77 -590 -101 -1011 -116 -2068 -5
-366 -13 -755 -16 -865 l-7 -201 159 -138 c87 -76 201 -175 253 -220 52 -44
147 -127 212 -183 65 -57 120 -99 123 -94 27 44 187 485 351 971 220 651 329
928 489 1248 89 178 266 477 266 450 0 -4 -11 -76 -25 -160 -88 -535 -150
-1383 -125 -1714 40 -539 174 -1106 337 -1429 70 -139 128 -213 202 -261 40
-26 54 -29 149 -33 128 -4 191 8 297 59 143 68 306 229 466 459 l44 64 7 -74
c13 -137 46 -209 117 -253 21 -14 108 -54 192 -91 85 -37 214 -96 288 -133
l135 -66 150 155 c229 235 427 489 572 732 64 109 70 115 76 89 4 -15 14 -139
23 -276 8 -138 17 -252 20 -254 2 -3 201 -116 442 -251 l438 -247 3 61 c1 33
-9 321 -22 640 -14 318 -24 580 -22 582 1 2 52 -54 112 -124 138 -162 450
-476 576 -580 354 -294 675 -458 963 -491 94 -10 152 0 242 42 134 64 309 196
574 432 l127 113 50 -67 c179 -240 447 -391 787 -443 101 -15 374 -15 485 0
487 68 963 268 1378 578 156 117 352 308 352 344 0 53 -19 50 -145 -23 -532
-308 -1017 -484 -1390 -505 -321 -17 -565 94 -684 313 -48 89 -48 89 6 120
384 219 683 437 932 679 400 389 600 781 605 1185 1 145 -12 185 -84 264 -145
157 -402 203 -645 115 l-87 -31 39 -40 38 -40 -78 52 c-290 193 -664 262
-1020 187 l-59 -12 -59 -98 c-307 -505 -474 -1030 -520 -1637 -11 -149 -8
-706 5 -740 7 -20 -283 -238 -351 -263 -63 -24 -165 -24 -230 1 -50 19 -167
97 -298 200 -95 75 -384 367 -472 477 -39 49 -71 90 -70 91 1 1 61 -18 134
-42 194 -65 288 -84 448 -91 165 -7 148 -15 238 122 206 316 296 660 254 977
-42 315 -207 610 -459 823 -141 119 -353 253 -382 242 -22 -9 -418 -329 -546
-441 -351 -309 -577 -597 -695 -885 l-22 -54 -8 68 c-12 117 8 477 41 720 81
607 272 1201 697 2165 52 118 98 230 101 247 9 40 -5 67 -41 81 -15 6 -183 27
-373 47 -190 19 -357 37 -372 40 -20 3 -35 -3 -55 -22 -16 -14 -53 -44 -83
-66 -30 -23 -63 -50 -73 -62 -17 -20 -17 -19 -7 9 8 20 8 45 0 80 -5 28 -11
64 -13 81 l-2 29 -160 27 c-88 15 -163 24 -166 20 -3 -3 -11 -24 -16 -46 -6
-22 -31 -119 -56 -215 -169 -650 -281 -1440 -327 -2290 -15 -279 -30 -809 -30
-1058 l0 -213 -88 -182 c-280 -578 -541 -904 -669 -836 -135 72 -101 587 92
1409 60 254 157 617 249 933 23 81 30 120 22 122 -6 2 -246 6 -532 9 l-521 6
-12 -88 c-71 -557 -103 -1074 -100 -1629 l1 -343 -30 -52 c-88 -156 -188 -249
-276 -256 -45 -3 -56 0 -94 28 -129 94 -227 407 -277 882 -69 668 -18 1485
146 2324 34 175 125 556 144 607 5 11 2 17 -8 17 -8 0 -236 20 -507 45 -271
25 -500 45 -510 45 -36 0 -212 -316 -350 -625 -40 -88 -126 -290 -192 -450
-66 -159 -147 -353 -181 -430 l-62 -140 -3 150 c-6 292 16 594 108 1430 51
463 81 791 92 1001 l3 52 -135 6 c-253 11 -1147 19 -1152 10z m9852 -2998 c56
-26 72 -228 31 -390 -78 -304 -306 -636 -596 -868 -83 -66 -184 -132 -192
-124 -8 8 34 303 68 471 131 651 333 956 614 928 28 -3 61 -10 75 -17z m-2705
-253 c-33 -174 -108 -327 -210 -428 -98 -97 -188 -139 -347 -161 -59 -8 -61 3
-17 86 58 109 180 247 344 387 71 61 227 181 236 182 4 1 1 -29 -6 -66z"/>
<path d="M9615 12044 c-170 -18 -315 -33 -321 -33 -12 -1 -103 -188 -152 -311
-100 -251 -107 -417 -25 -560 30 -52 70 -104 165 -213 l67 -77 18 27 c10 14
31 53 48 87 39 77 55 83 55 21 0 -26 7 -72 16 -102 9 -30 14 -72 12 -94 -2
-21 -2 -39 -1 -39 1 0 109 107 240 238 l238 237 18 75 c44 192 62 496 41 709
l-7 71 -51 -1 c-28 -1 -190 -17 -361 -35z"/>
<path d="M16662 8561 c-138 -125 -225 -218 -217 -231 4 -6 14 -9 22 -6 21 8
283 194 316 224 29 27 35 60 15 80 -24 24 -49 11 -136 -67z"/>
</g>
</svg>
